<svg id="Layer_1" data-name="Layer 1" xmlns="http://www.w3.org/2000/svg" xmlns:xlink="http://www.w3.org/1999/xlink" viewBox="0 0 512 512"><defs><linearGradient id="linear-gradient" x1="132.72" y1="402.86" x2="132.72" y2="342.39" gradientUnits="userSpaceOnUse"><stop offset="0" stop-color="#a6a8ab"/><stop offset="1" stop-color="#dbdcdd"/></linearGradient><linearGradient id="linear-gradient-2" x1="148.72" y1="464.54" x2="148.72" y2="404.07" xlink:href="#linear-gradient"/><linearGradient id="linear-gradient-3" x1="219.24" y1="448.13" x2="219.24" y2="387.66" xlink:href="#linear-gradient"/><linearGradient id="linear-gradient-4" x1="289.77" y1="431.66" x2="289.77" y2="371.2" xlink:href="#linear-gradient"/><linearGradient id="linear-gradient-5" x1="243.79" y1="501.63" x2="243.79" y2="441.16" xlink:href="#linear-gradient"/><linearGradient id="linear-gradient-6" x1="328.24" y1="476.94" x2="328.24" y2="416.47" xlink:href="#linear-gradient"/><linearGradient id="linear-gradient-7" x1="395.85" y1="423.44" x2="395.85" y2="362.94" xlink:href="#linear-gradient"/><linearGradient id="linear-gradient-8" x1="302.45" y1="208.85" x2="310.12" y2="62.48" gradientUnits="userSpaceOnUse"><stop offset="0" stop-color="#bbbdbf"/><stop offset="1" stop-color="#f1f1f2"/></linearGradient><linearGradient id="linear-gradient-9" x1="187.85" y1="295.86" x2="187.85" y2="9.02" gradientUnits="userSpaceOnUse"><stop offset="0" stop-color="#e47525"/><stop offset="1" stop-color="#f3bf17"/></linearGradient><linearGradient id="linear-gradient-10" x1="187.85" y1="271.16" x2="187.85" y2="34.41" xlink:href="#linear-gradient-9"/><linearGradient id="linear-gradient-11" x1="280.74" y1="386.4" x2="280.74" y2="161.79" xlink:href="#linear-gradient"/></defs><title>sun_clouds_rain</title><path d="M110.66,381.69c-5.63,20.45,16,30.23,30.52,16.89,12.45-11.56,12.74-38.52,14.52-54.22C139.1,352.65,116.29,362.13,110.66,381.69Z" fill-rule="evenodd" fill="url(#linear-gradient)"/><path d="M115.1,381.39c3.85-11.26,13-18.37,27.56-25.19-13.33,10.08-21,16.89-24.3,29-1.78,7.7-2.67,8.89-3.56,8.89C113.32,394.13,112.73,387.61,115.1,381.39Z" fill="#dedfdd" fill-rule="evenodd"/><path d="M126.66,441.55c-5.63,20.44,16,30.22,30.22,16.89,12.45-11.55,13-38.52,14.82-54.52C154.81,412.5,132,422,126.66,441.55Z" fill-rule="evenodd" fill="url(#linear-gradient-2)"/><path d="M130.81,441.25c4.15-11.26,13.33-18.67,27.56-25.19-13.33,10.08-21,16.89-24,29-1.78,7.7-2.67,8.89-3.56,8.89C129.33,453.69,128.73,447.47,130.81,441.25Z" fill="#dedfdd" fill-rule="evenodd"/><path d="M197.18,424.36c-5.63,20.44,16,30.22,30.52,16.89,12.44-11.56,12.74-38.52,14.52-54.22C225.63,395.32,202.81,404.8,197.18,424.36Z" fill-rule="evenodd" fill="url(#linear-gradient-3)"/><path d="M201.63,424.06c3.85-11.26,13.34-18.37,27.56-25.19-13.33,10.08-21,16.89-24,29-2.08,7.7-3,8.89-3.85,8.89C199.85,436.8,199.26,430.28,201.63,424.06Z" fill="#dedfdd" fill-rule="evenodd"/><path d="M267.7,409c-5.63,20.15,16,29.93,30.22,16.59C310.37,414,311,387,312.75,371.32,295.85,379.91,273,389.39,267.7,409Z" fill-rule="evenodd" fill="url(#linear-gradient-4)"/><path d="M271.85,408.65C276,397.1,285.19,390,299.41,383.17c-13.34,10.08-21,17.19-24,29-1.78,7.71-2.67,8.89-3.56,8.89C270.37,421.1,269.78,414.58,271.85,408.65Z" fill="#dedfdd" fill-rule="evenodd"/><path d="M222.07,478.29c-5.93,20.15,15.7,29.93,30.22,16.59,12.15-11.56,12.74-38.52,14.22-54.23C250.22,449.25,227.41,458.73,222.07,478.29Z" fill-rule="evenodd" fill="url(#linear-gradient-5)"/><path d="M226.22,478c3.85-11.56,13.33-18.66,27.56-25.48-13.33,10.07-21,17.19-24,29-2.08,7.7-3,8.89-3.85,8.89C224.44,490.44,224.15,483.92,226.22,478Z" fill="#dedfdd" fill-rule="evenodd"/><path d="M306.23,454.88c-5.93,20.44,15.7,30.22,30.22,16.89,12.44-11.56,13-38.82,14.81-54.52C334.38,425.84,311.56,435.32,306.23,454.88Z" fill-rule="evenodd" fill="url(#linear-gradient-6)"/><path d="M310.37,454.58c3.85-11.56,13.34-18.67,27.55-25.19-13.33,9.78-21,16.89-24,29-2.07,7.7-3,8.89-3.55,8.89C308.89,467,308.3,460.8,310.37,454.58Z" fill="#dedfdd" fill-rule="evenodd"/><path d="M373.79,402.43c-5.63,20.44,16,29.93,30.52,16.89,12.44-11.56,12.74-38.82,14.52-54.52C402.23,373.39,379.41,382.88,373.79,402.43Z" fill-rule="evenodd" fill="url(#linear-gradient-7)"/><path d="M378.23,402.14c3.85-11.56,13.33-18.67,27.55-25.19-13.33,9.78-21,16.89-24,29-2.07,7.7-3,8.89-3.85,8.59C376.45,414.58,376.16,408.36,378.23,402.14Z" fill="#dedfdd" fill-rule="evenodd"/><path d="M316,65.22a59.1,59.1,0,0,0-47.41,21c-45.34-1.19-83.56,24.59-84.75,58.08s35.56,62.52,81.49,64C289,209.53,311,203,326.67,191.75c9.48,11.85,25.48,20.15,43.56,20.74,30.22,1.19,55.41-18.37,56.3-43.56s-22.82-46.52-52.74-47.71h-2.07C371.71,91.3,347.12,66.41,316,65.22Z" fill-rule="evenodd" fill="url(#linear-gradient-8)"/><path d="M316,71.15A55.51,55.51,0,0,0,270.37,91.6c-43.56-1.19-80,24.3-81.19,56.89v3.26c3.26-31.11,38.82-54.82,80.89-53.63a56.6,56.6,0,0,1,45.63-20.74C345.34,78.56,369,103.15,369,132.19a4.38,4.38,0,0,0,2.07.3c27.55.89,49.48,20.15,50.67,43.26,0-1.18.29-2.07.29-3.26.89-24.59-21.92-45.34-50.67-46.52h-2.07C369.34,96.63,345.64,72.34,316,71.15Z" fill="#f4f5f5" fill-rule="evenodd"/><path d="M322.52,100.49,292.3,134.27l40.89,20.15L292.3,174.86l30.22,33.78-46.81,3.55,14.81,43.86-44.15-14.82-3.55,46.23-34.37-29.93L188,297.83V254.57h19.85l37.33-15.11L273.93,211,289,174.27V134.86L273.93,98.12,245.18,69.37,207.85,54.56H188V11l20.45,40.59,34.37-29.93,3.55,45.93,44.15-14.52L275.71,96.93ZM188,297.83l-20.44-40.3-34.37,29.93-3.56-46.23L85.17,256.05,100,212.2l-46.82-3.55L83.4,174.86,42.5,154.41,83.4,134.27,53.17,100.49,100,96.93,85.17,53.08,129.62,67.6l3.56-45.93,34.37,29.93L188,11V54.56H168.14L130.81,69.37l-29,28.74L86.36,134.86v39.41L101.77,211l29,28.45,37.34,15.11H188Z" fill-rule="evenodd" fill="url(#linear-gradient-9)"/><path d="M188,272.94c66.08,0,119.71-53.33,119.71-118.52S254.07,36.19,188,36.19,68,89.23,68,154.41,121.92,272.94,188,272.94Z" fill-rule="evenodd" fill="url(#linear-gradient-10)"/><path d="M188,43.3c60.45,0,109.34,48.6,109.34,108.16v3C295.56,96.34,247.56,49.52,188,49.52S80.14,96.34,78.36,154.41v-3C78.36,91.89,127.55,43.3,188,43.3Z" fill="#f9d167" fill-rule="evenodd"/><path d="M269.19,162.71A91.29,91.29,0,0,1,341.49,198c70.82.89,128,43,128,94.52,0,52.45-58.38,94.82-130.08,94.82-37,0-70.52-11.26-93.93-29.34-15.41,17.78-40.6,29.34-68.75,29.34C130.21,387.32,92,355.61,92,316.8,92,277.68,130.21,246,176.74,246a11.08,11.08,0,0,1,3.26.3C181.77,199.75,221.48,162.71,269.19,162.71Z" fill-rule="evenodd" fill="url(#linear-gradient-11)"/><path d="M268.89,171.6a86.28,86.28,0,0,1,69.34,34.67c67.86.89,123,42.08,123,92.75a30.36,30.36,0,0,1-.3,5c-3.26-48.3-56.89-87.12-122.68-87.71a86.28,86.28,0,0,0-69.34-34.67c-45.93,0-83.86,36.45-85.34,81.78h-3.26c-43,0-78.23,28.15-81.19,64,0-1.48-.3-3.26-.3-5,0-37.93,36.74-69,81.49-69h3.26C185,208,223,171.6,268.89,171.6Z" fill="#dedfdd" fill-rule="evenodd"/></svg>